<?xml version="1.0" encoding="UTF-8"?>
<svg xmlns="http://www.w3.org/2000/svg" xmlns:xlink="http://www.w3.org/1999/xlink" width="311.3pt" height="311.2pt" viewBox="0 0 311.3 311.2" version="1.1">
<defs>
<clipPath id="clip1">
  <path d="M 0 0 L 311.300781 0 L 311.300781 311.199219 L 0 311.199219 Z M 0 0 "/>
</clipPath>
</defs>
<g id="surface1">
<g clip-path="url(#clip1)" clip-rule="nonzero">
<path style=" stroke:none;fill-rule:evenodd;fill:rgb(84.375%,70.117188%,41.184998%);fill-opacity:1;" d="M 155.699219 -0.0195313 C 241.402344 -0.0195313 311.300781 69.878906 311.300781 155.582031 C 311.300781 241.289063 241.402344 311.1875 155.699219 311.1875 C 69.992188 311.1875 0.09375 241.289063 0.09375 155.582031 C 0.09375 69.878906 69.992188 -0.0195313 155.699219 -0.0195313 Z M 155.699219 -0.0195313 "/>
</g>
<path style=" stroke:none;fill-rule:evenodd;fill:rgb(89.0625%,0%,8.616638%);fill-opacity:1;" d="M 155.695313 17.511719 C 231.953125 17.511719 293.769531 79.328125 293.769531 155.582031 C 293.769531 231.839844 231.953125 293.65625 155.695313 293.65625 C 79.441406 293.65625 17.625 231.839844 17.625 155.582031 C 17.625 79.328125 79.441406 17.511719 155.695313 17.511719 Z M 155.695313 17.511719 "/>
<path style=" stroke:none;fill-rule:evenodd;fill:rgb(89.0625%,0%,8.616638%);fill-opacity:1;" d="M 155.699219 17.511719 C 231.746094 17.511719 293.769531 79.535156 293.769531 155.585938 C 293.769531 231.628906 231.746094 293.65625 155.699219 293.65625 C 79.648438 293.65625 17.625 231.628906 17.625 155.585938 C 17.625 79.535156 79.648438 17.511719 155.699219 17.511719 Z M 155.699219 17.511719 "/>
<path style="fill-rule:evenodd;fill:rgb(10.594177%,9.812927%,9.423828%);fill-opacity:1;stroke-width:2;stroke-linecap:butt;stroke-linejoin:miter;stroke:rgb(0%,0%,0%);stroke-opacity:1;stroke-miterlimit:4;" d="M 1569.609375 2217.3125 L 893.90625 1022.742188 L 2277.265625 1022.742188 Z M 1569.609375 2217.3125 " transform="matrix(0.1,0,0,-0.1,0,311.2)"/>
<path style=" stroke:none;fill-rule:evenodd;fill:rgb(84.375%,70.117188%,41.184998%);fill-opacity:1;" d="M 160.925781 202.054688 L 171.664063 202.054688 L 171.664063 191.582031 L 210.933594 191.582031 L 160.847656 102.46875 Z M 170.996094 147.75 L 170.996094 177.285156 L 186.101563 177.285156 Z M 158.398438 97.394531 L 158.398438 202.054688 L 146.648438 202.054688 L 146.648438 118.664063 Z M 143.28125 149.375 L 143.28125 122.957031 L 97.632813 202.054688 L 144.285156 202.054688 L 144.285156 190.1875 L 123.140625 190.1875 Z M 143.28125 149.375 "/>
<path style=" stroke:none;fill-rule:evenodd;fill:rgb(84.375%,70.117188%,41.184998%);fill-opacity:1;" d="M 120.148438 263.796875 L 106.496094 285.679688 C 122.164063 291.675781 139.332031 295.058594 156.742188 294.382813 L 151.855469 268.425781 Z M 120.148438 263.796875 "/>
<path style=" stroke:none;fill-rule:evenodd;fill:rgb(10.594177%,9.812927%,9.423828%);fill-opacity:1;" d="M 123.324219 272.070313 L 114.496094 287.136719 C 123.945313 290.421875 135.433594 292.820313 148.160156 293.519531 L 145.695313 275.722656 C 137.757813 275.132813 130.265625 273.542969 123.324219 272.070313 Z M 123.324219 272.070313 "/>
<path style=" stroke:none;fill-rule:evenodd;fill:rgb(84.375%,70.117188%,41.184998%);fill-opacity:1;" d="M 181.472656 266.332031 L 180.304688 292.386719 C 196.738281 289.347656 213.207031 283.269531 227.910156 273.554688 L 211.097656 253.703125 Z M 181.472656 266.332031 "/>
<path style=" stroke:none;fill-rule:evenodd;fill:rgb(10.594177%,9.812927%,9.423828%);fill-opacity:1;" d="M 188.226563 271.808594 L 187.914063 289.449219 C 197.671875 287.332031 208.753906 283.378906 220.082031 277.308594 L 209.316406 263.234375 C 202.179688 266.886719 194.9375 269.441406 188.226563 271.808594 Z M 188.226563 271.808594 "/>
<path style=" stroke:none;fill-rule:evenodd;fill:rgb(84.375%,70.117188%,41.184998%);fill-opacity:1;" d="M 235.527344 237.375 L 247.21875 260.453125 C 259.90625 249.175781 271.140625 235.261719 279.082031 219.144531 L 254.90625 210.886719 Z M 235.527344 237.375 "/>
<path style=" stroke:none;fill-rule:evenodd;fill:rgb(10.594177%,9.812927%,9.423828%);fill-opacity:1;" d="M 244.019531 238.539063 L 252.347656 253.910156 C 259.726563 246.945313 267.355469 237.699219 274.164063 226.5 L 258.019531 220.039063 C 253.648438 226.949219 248.648438 232.964844 244.019531 238.539063 Z M 244.019531 238.539063 "/>
<path style=" stroke:none;fill-rule:evenodd;fill:rgb(84.375%,70.117188%,41.184998%);fill-opacity:1;" d="M 265.78125 186.496094 L 287.140625 200.183594 C 292.546875 183.765625 295.410156 165.847656 294.359375 147.773438 L 269.507813 153.445313 Z M 265.78125 186.496094 "/>
<path style=" stroke:none;fill-rule:evenodd;fill:rgb(10.594177%,9.812927%,9.423828%);fill-opacity:1;" d="M 273.664063 183.007813 L 288.355469 191.839844 C 291.300781 181.941406 293.34375 169.949219 293.726563 156.707031 L 276.664063 159.679688 C 276.28125 167.941406 274.921875 175.761719 273.664063 183.007813 Z M 273.664063 183.007813 "/>
<path style=" stroke:none;fill-rule:evenodd;fill:rgb(84.375%,70.117188%,41.184998%);fill-opacity:1;" d="M 267.300781 129.8125 L 292.394531 129.914063 C 288.773438 112.976563 282.226563 96.132813 272.265625 81.277344 L 253.902344 99.585938 Z M 267.300781 129.8125 "/>
<path style=" stroke:none;fill-rule:evenodd;fill:rgb(10.594177%,9.812927%,9.423828%);fill-opacity:1;" d="M 272.277344 122.5625 L 289.246094 122.136719 C 286.796875 112.09375 282.523438 100.753906 276.207031 89.246094 L 263.136719 101.027344 C 266.953125 108.285156 269.71875 115.695313 272.277344 122.5625 Z M 272.277344 122.5625 "/>
<path style=" stroke:none;fill-rule:evenodd;fill:rgb(84.375%,70.117188%,41.184998%);fill-opacity:1;" d="M 242.753906 81.671875 L 265.492188 70.644531 C 255.269531 56.929688 242.441406 44.597656 227.332031 35.574219 L 218.234375 60.273438 Z M 242.753906 81.671875 "/>
<path style=" stroke:none;fill-rule:evenodd;fill:rgb(10.594177%,9.812927%,9.423828%);fill-opacity:1;" d="M 244.28125 72.910156 L 259.453125 65.003906 C 253.117188 57.007813 244.601563 48.644531 234.167969 41.035156 L 227.179688 57.484375 C 233.609375 62.355469 239.148438 67.835938 244.28125 72.910156 Z M 244.28125 72.910156 "/>
<path style=" stroke:none;fill-rule:evenodd;fill:rgb(84.375%,70.117188%,41.184998%);fill-opacity:1;" d="M 195.027344 47.1875 L 209.371094 25.785156 C 193.902344 19.253906 176.851563 15.28125 159.429688 15.363281 L 163.488281 41.472656 Z M 195.027344 47.1875 "/>
<path style=" stroke:none;fill-rule:evenodd;fill:rgb(10.594177%,9.812927%,9.423828%);fill-opacity:1;" d="M 192.117188 38.8125 L 201.421875 24.054688 C 192.082031 20.445313 180.675781 17.65625 167.976563 16.519531 L 169.875 34.390625 C 177.789063 35.25 185.230469 37.097656 192.117188 38.8125 Z M 192.117188 38.8125 "/>
<path style=" stroke:none;fill-rule:evenodd;fill:rgb(84.375%,70.117188%,41.184998%);fill-opacity:1;" d="M 136.277344 42.03125 L 139.054688 16.109375 C 122.464844 18.042969 105.65625 23.011719 90.382813 31.722656 L 105.933594 52.652344 Z M 136.277344 42.03125 "/>
<path style=" stroke:none;fill-rule:evenodd;fill:rgb(10.594177%,9.812927%,9.423828%);fill-opacity:1;" d="M 129.875 36.113281 L 131.277344 18.535156 C 121.410156 19.996094 110.105469 23.199219 98.425781 28.496094 L 108.300781 43.261719 C 115.648438 40.09375 123.035156 38.027344 129.875 36.113281 Z M 129.875 36.113281 "/>
<path style=" stroke:none;fill-rule:evenodd;fill:rgb(84.375%,70.117188%,41.184998%);fill-opacity:1;" d="M 82.164063 67.808594 L 72.667969 43.667969 C 58.992188 53.617188 46.519531 66.339844 37.117188 81.585938 L 60.410156 92.230469 Z M 82.164063 67.808594 "/>
<path style=" stroke:none;fill-rule:evenodd;fill:rgb(10.594177%,9.812927%,9.423828%);fill-opacity:1;" d="M 73.816406 65.800781 L 66.953125 49.664063 C 58.960938 55.855469 50.511719 64.292969 42.695313 74.753906 L 58.164063 82.808594 C 63.15625 76.371094 68.691406 70.882813 73.816406 65.800781 Z M 73.816406 65.800781 "/>
<path style=" stroke:none;fill-rule:evenodd;fill:rgb(84.375%,70.117188%,41.184998%);fill-opacity:1;" d="M 47.980469 112.902344 L 28.453125 96.523438 C 21.097656 112.101563 16.085938 129.5 14.933594 147.570313 L 40.273438 145.203125 Z M 47.980469 112.902344 "/>
<path style=" stroke:none;fill-rule:evenodd;fill:rgb(10.594177%,9.812927%,9.423828%);fill-opacity:1;" d="M 39.738281 115.328125 L 26.234375 104.640625 C 22.113281 114.074219 18.628906 125.703125 16.644531 138.789063 L 33.929688 138.078125 C 35.3125 129.933594 37.609375 122.351563 39.738281 115.328125 Z M 39.738281 115.328125 "/>
<path style=" stroke:none;fill-rule:evenodd;fill:rgb(84.375%,70.117188%,41.184998%);fill-opacity:1;" d="M 40.929688 171.867188 L 15.984375 169.027344 C 17.878906 186.269531 22.691406 203.730469 31.097656 219.589844 L 51.207031 203.386719 Z M 40.929688 171.867188 "/>
<path style=" stroke:none;fill-rule:evenodd;fill:rgb(10.594177%,9.812927%,9.423828%);fill-opacity:1;" d="M 35.25 178.53125 L 18.332031 177.109375 C 19.757813 187.363281 22.863281 199.105469 27.980469 211.238281 L 42.167969 200.945313 C 39.105469 193.3125 37.105469 185.640625 35.25 178.53125 Z M 35.25 178.53125 "/>
<path style=" stroke:none;fill-rule:evenodd;fill:rgb(84.375%,70.117188%,41.184998%);fill-opacity:1;" d="M 67.03125 228.464844 L 44.367188 239.664063 C 54.6875 253.304688 67.597656 265.539063 82.765625 274.449219 L 91.695313 249.683594 Z M 67.03125 228.464844 "/>
<path style=" stroke:none;fill-rule:evenodd;fill:rgb(10.594177%,9.812927%,9.423828%);fill-opacity:1;" d="M 65.5625 237.238281 L 50.445313 245.257813 C 56.835938 253.210938 65.410156 261.507813 75.894531 269.039063 L 82.769531 252.539063 C 76.308594 247.714844 70.730469 242.277344 65.5625 237.238281 Z M 65.5625 237.238281 "/>
<path style="fill-rule:evenodd;fill:rgb(100%,100%,100%);fill-opacity:1;stroke-width:2.16;stroke-linecap:butt;stroke-linejoin:miter;stroke:rgb(100%,100%,100%);stroke-opacity:1;stroke-miterlimit:4;" d="M 907.695313 882.664063 C 920.78125 897.859375 936.289063 905.789063 954.257813 906.414063 C 972.226563 907.078125 989.921875 900.28125 1007.34375 886.101563 C 1027.460938 869.773438 1038.203125 850.59375 1039.53125 828.484375 C 1040.898438 806.414063 1032.734375 783.601563 1015.078125 760.085938 C 997.03125 736.0625 977.5 722.3125 956.523438 718.757813 C 935.585938 715.203125 914.414063 722.117188 893.085938 739.421875 C 875.742188 753.523438 865.351563 768.992188 861.914063 785.945313 C 858.476563 802.859375 862.304688 819.8125 873.359375 836.609375 L 900.898438 814.226563 C 896.09375 805.320313 894.648438 796.648438 896.601563 788.328125 C 898.554688 780.007813 903.867188 772.3125 912.539063 765.28125 C 924.84375 755.320313 937.265625 751.84375 949.84375 754.890625 C 962.421875 757.9375 974.6875 767.390625 986.601563 783.210938 C 998.125 798.5625 1003.828125 812.976563 1003.789063 826.492188 C 1003.671875 840.046875 997.8125 851.570313 986.015625 861.140625 C 977.578125 868.015625 968.90625 871.414063 960.15625 871.296875 C 951.328125 871.179688 943.007813 867.585938 935.039063 860.4375 Z M 837.5 919.578125 C 852.265625 932 861.054688 945.046875 863.90625 958.71875 C 866.757813 972.390625 863.398438 985.320313 853.90625 997.546875 C 844.257813 1009.890625 832.695313 1016.101563 819.179688 1016.101563 C 805.703125 1016.101563 791.5625 1009.890625 776.835938 997.46875 C 762.109375 985.085938 753.320313 972.039063 750.507813 958.289063 C 747.734375 944.578125 751.132813 931.53125 760.78125 919.1875 C 770.273438 906.960938 781.757813 900.867188 795.195313 900.90625 C 808.632813 900.90625 822.734375 907.15625 837.5 919.578125 Z M 860.273438 890.398438 C 838.632813 872.195313 816.679688 863.875 794.453125 865.4375 C 772.226563 867.039063 752.96875 878.171875 736.757813 898.992188 C 720.585938 919.773438 714.0625 941.648438 717.1875 964.695313 C 720.3125 987.703125 732.65625 1008.328125 754.257813 1026.492188 C 775.820313 1044.65625 797.8125 1052.9375 820.117188 1051.335938 C 842.421875 1049.695313 861.679688 1038.523438 877.890625 1017.742188 C 894.0625 996.921875 900.585938 975.085938 897.421875 952.117188 C 894.21875 929.148438 881.835938 908.5625 860.273438 890.398438 Z M 807.617188 1109.03125 L 655.46875 1024.96875 L 638.828125 1057.507813 L 762.851563 1126.0625 L 723.398438 1203.210938 L 751.484375 1218.757813 Z M 743.085938 1237.195313 L 580.195313 1178.875 L 539.453125 1301.84375 L 567.773438 1312 L 597.109375 1223.40625 L 631.835938 1235.828125 L 605 1316.84375 L 632.851563 1326.84375 L 659.6875 1245.789063 L 701.601563 1260.789063 L 670.859375 1353.5625 L 700.976563 1364.34375 Z M 664.257813 1519.617188 C 673.320313 1513.601563 680.195313 1506.53125 684.804688 1498.40625 C 689.414063 1490.242188 692.109375 1480.4375 692.851563 1469.070313 C 694.53125 1444.109375 687.578125 1423.25 671.914063 1406.53125 C 656.289063 1389.851563 634.84375 1380.515625 607.734375 1378.523438 C 580.3125 1376.53125 557.890625 1382.703125 540.46875 1396.960938 C 523.007813 1411.21875 513.398438 1431.179688 511.679688 1456.882813 C 510.195313 1479.304688 514.101563 1497.9375 523.4375 1512.820313 C 532.8125 1527.703125 546.445313 1537.15625 564.296875 1541.140625 L 566.796875 1503.679688 C 558.046875 1500.75 551.5625 1495.632813 547.34375 1488.328125 C 543.164063 1480.984375 541.445313 1471.648438 542.1875 1460.4375 C 543.203125 1445.476563 549.257813 1434.109375 560.390625 1426.375 C 571.484375 1418.601563 586.328125 1415.398438 604.921875 1416.726563 C 623.59375 1418.09375 637.929688 1423.601563 647.929688 1433.25 C 657.890625 1442.9375 662.34375 1455.515625 661.289063 1471.0625 C 660.507813 1482.703125 656.5625 1492.15625 649.414063 1499.578125 C 642.304688 1506.921875 632.890625 1511.101563 621.25 1512.117188 L 623.984375 1471.609375 L 594.570313 1469.5 L 589.609375 1543.484375 L 682.617188 1550.242188 L 684.257813 1525.59375 Z M 685.742188 1587.976563 L 514.140625 1603.601563 L 517.226563 1640.320313 L 688.867188 1624.695313 Z M 608.828125 1713.992188 C 627.226563 1709.226563 642.539063 1709.8125 654.765625 1715.632813 C 666.992188 1721.492188 674.921875 1732.078125 678.59375 1747.351563 C 682.265625 1762.742188 680.078125 1776.0625 671.953125 1787.273438 C 663.828125 1798.523438 650.546875 1806.492188 632.148438 1811.257813 C 613.789063 1816.023438 598.476563 1815.4375 586.210938 1809.5 C 573.984375 1803.5625 566.015625 1792.898438 562.304688 1777.46875 C 558.632813 1762.195313 560.859375 1748.992188 568.984375 1737.898438 C 577.109375 1726.765625 590.390625 1718.796875 608.828125 1713.992188 Z M 600.078125 1677.546875 C 573.085938 1684.539063 553.476563 1697.742188 541.328125 1717.15625 C 529.140625 1736.570313 526.132813 1759.265625 532.382813 1785.242188 C 538.59375 1811.179688 551.484375 1829.773438 571.054688 1841.023438 C 590.625 1852.3125 613.90625 1854.421875 640.820313 1847.46875 C 667.8125 1840.476563 687.382813 1827.234375 699.570313 1807.742188 C 711.757813 1788.210938 714.765625 1765.515625 708.515625 1739.578125 C 702.304688 1713.601563 689.414063 1695.046875 669.84375 1683.835938 C 650.3125 1672.664063 627.03125 1670.554688 600.078125 1677.546875 Z M 751.640625 1967.9375 L 766.289063 1993.289063 C 774.765625 2007.9375 777.226563 2020.867188 773.59375 2032.039063 C 770.039063 2043.210938 759.921875 2053.992188 743.359375 2064.34375 C 726.875 2074.65625 712.96875 2079.1875 701.679688 2077.898438 C 690.390625 2076.609375 680.976563 2069.5 673.476563 2056.492188 L 656.601563 2027.3125 Z M 760.429688 1920.359375 L 612.734375 2012.585938 L 647.5 2072.703125 C 661.09375 2096.257813 677.382813 2110.007813 696.289063 2113.953125 C 715.195313 2117.859375 737.109375 2112.078125 761.992188 2096.53125 C 775.46875 2088.132813 786.132813 2078.5625 793.984375 2067.859375 C 801.796875 2057.15625 806.484375 2045.75 808.046875 2033.71875 C 809.21875 2024.65625 808.554688 2015.632813 806.09375 2006.570313 C 803.632813 1997.507813 798.359375 1985.984375 790.234375 1971.921875 Z M 851.328125 2074.890625 L 725.3125 2197.039063 L 810.625 2292.15625 L 832.539063 2270.945313 L 771.054688 2202.390625 L 797.929688 2176.375 L 854.140625 2239.03125 L 875.703125 2218.171875 L 819.492188 2155.476563 L 851.875 2124.070313 L 916.25 2195.828125 L 939.53125 2173.25 Z M 1014.140625 2237.625 L 910.429688 2380.632813 L 938.75 2402.820313 L 1042.460938 2259.8125 Z M 1071.328125 2282 L 987.8125 2438.640625 L 1020.234375 2457.351563 L 1138.828125 2384.96875 L 1081.445313 2492.585938 L 1112.03125 2510.203125 L 1195.546875 2353.601563 L 1163.515625 2335.125 L 1044.53125 2407.273438 L 1101.914063 2299.65625 Z M 1343.4375 2423.796875 C 1339.53125 2413.367188 1334.140625 2405.046875 1327.304688 2398.757813 C 1320.507813 2392.507813 1311.757813 2387.898438 1301.171875 2384.929688 C 1277.890625 2378.445313 1256.875 2381.570313 1238.125 2394.382813 C 1219.375 2407.15625 1206.484375 2427.234375 1199.453125 2454.539063 C 1192.304688 2482.117188 1193.867188 2506.179688 1203.984375 2526.6875 C 1214.101563 2547.195313 1231.132813 2560.789063 1255.117188 2567.46875 C 1275.976563 2573.289063 1294.296875 2572.859375 1310.15625 2566.140625 C 1326.015625 2559.421875 1337.539063 2547.351563 1344.6875 2529.890625 L 1309.804688 2520.164063 C 1305.351563 2528.523438 1299.296875 2534.1875 1291.601563 2537.078125 C 1283.867188 2539.96875 1274.726563 2539.929688 1264.257813 2537.039063 C 1250.351563 2533.132813 1240.742188 2524.8125 1235.546875 2511.960938 C 1230.351563 2499.148438 1230.15625 2483.40625 1234.960938 2464.65625 C 1239.804688 2445.867188 1247.734375 2432.3125 1258.789063 2423.953125 C 1269.804688 2415.632813 1282.578125 2413.484375 1297.03125 2417.507813 C 1307.851563 2420.515625 1316.054688 2426.375 1321.679688 2435.085938 C 1327.265625 2443.757813 1329.414063 2454.148438 1328.164063 2466.21875 L 1290.429688 2455.710938 L 1282.8125 2485.320313 L 1351.71875 2504.5 L 1375.859375 2410.90625 L 1352.929688 2404.5 L 1343.4375 2423.757813 Z M 1408.4375 2418.796875 L 1396.40625 2597.429688 L 1521.25 2606.492188 L 1523.359375 2575.4375 L 1433.398438 2568.914063 L 1435.976563 2530.828125 L 1518.203125 2536.804688 L 1520.273438 2506.257813 L 1438.007813 2500.28125 L 1441.132813 2454.304688 L 1535.273438 2461.179688 L 1537.5 2428.171875 Z M 1564.84375 2428.640625 L 1576.875 2607.3125 L 1613.867188 2604.617188 L 1675.390625 2476.804688 L 1683.632813 2599.539063 L 1718.554688 2597 L 1706.523438 2418.367188 L 1670 2421.023438 L 1608.007813 2548.875 L 1599.726563 2426.101563 Z M 1740.820313 2408.40625 L 1776.640625 2583.601563 L 1811.328125 2575.90625 L 1775.507813 2400.75 Z M 1812.578125 2391.257813 L 1871.484375 2559.539063 L 1989.0625 2515.046875 L 1978.828125 2485.789063 L 1894.101563 2517.859375 L 1881.5625 2481.960938 L 1959.023438 2452.664063 L 1948.945313 2423.875 L 1871.484375 2453.210938 L 1856.328125 2409.890625 L 1945 2376.335938 L 1934.140625 2345.28125 Z M 2038.242188 2400.671875 L 2073.984375 2378.367188 C 2081.71875 2373.523438 2088.320313 2371.609375 2093.867188 2372.585938 C 2099.414063 2373.601563 2104.179688 2377.585938 2108.242188 2384.65625 C 2112.109375 2391.296875 2113.242188 2397.46875 2111.71875 2403.09375 C 2110.15625 2408.757813 2105.859375 2413.796875 2098.867188 2418.132813 L 2061.757813 2441.335938 Z M 1957.929688 2333.289063 L 2046.640625 2486.765625 L 2118.28125 2442.039063 C 2134.375 2432 2144.21875 2420.945313 2147.851563 2408.953125 C 2151.484375 2396.960938 2149.023438 2383.601563 2140.507813 2368.875 C 2135.078125 2359.5 2128.671875 2352.859375 2121.25 2348.953125 C 2113.867188 2345.046875 2105.976563 2344.1875 2097.578125 2346.335938 C 2102.617188 2339.929688 2105.078125 2333.484375 2105 2326.921875 C 2104.921875 2320.359375 2102.070313 2311.804688 2096.523438 2301.257813 L 2086.679688 2282.78125 C 2086.601563 2282.625 2086.484375 2282.429688 2086.328125 2282.15625 C 2081.210938 2272.898438 2079.882813 2266.101563 2082.382813 2261.921875 L 2079.6875 2257.234375 L 2046.367188 2278.054688 C 2046.5625 2280.867188 2047.265625 2283.992188 2048.515625 2287.507813 C 2049.804688 2291.023438 2051.601563 2295.046875 2054.023438 2299.5 L 2062.96875 2315.90625 C 2068.125 2325.59375 2070.117188 2333.09375 2068.90625 2338.367188 C 2067.734375 2343.640625 2063.085938 2348.835938 2055 2353.875 L 2022.8125 2373.992188 L 1988.320313 2314.304688 Z M 2181.796875 2284.773438 C 2169.101563 2270.125 2162.382813 2255.828125 2161.640625 2241.84375 C 2160.859375 2227.859375 2166.09375 2215.632813 2177.34375 2205.125 C 2188.710938 2194.460938 2201.054688 2190.242188 2214.414063 2192.429688 C 2227.773438 2194.65625 2240.78125 2203.054688 2253.4375 2217.742188 C 2266.132813 2232.351563 2272.8125 2246.6875 2273.554688 2260.710938 C 2274.257813 2274.734375 2268.90625 2287.039063 2257.539063 2297.664063 C 2246.289063 2308.210938 2234.023438 2312.351563 2220.78125 2310.125 C 2207.5 2307.898438 2194.53125 2299.460938 2181.796875 2284.773438 Z M 2154.921875 2309.929688 C 2173.554688 2331.414063 2193.984375 2343.210938 2216.171875 2345.242188 C 2238.398438 2347.3125 2259.0625 2339.421875 2278.203125 2321.53125 C 2297.304688 2303.640625 2307.03125 2283.054688 2307.421875 2259.8125 C 2307.8125 2236.570313 2298.710938 2214.1875 2280.117188 2192.742188 C 2261.523438 2171.296875 2241.09375 2159.539063 2218.789063 2157.507813 C 2196.523438 2155.476563 2175.820313 2163.40625 2156.71875 2181.257813 C 2137.578125 2199.1875 2127.851563 2219.734375 2127.539063 2242.9375 C 2127.226563 2266.140625 2136.328125 2288.445313 2154.921875 2309.929688 Z M 2276.875 2141.296875 L 2297.929688 2112.273438 C 2291.210938 2105.28125 2287.96875 2097.664063 2288.125 2089.5 C 2288.359375 2081.375 2292.070313 2072.273438 2299.375 2062.234375 C 2305.546875 2053.679688 2311.679688 2048.40625 2317.773438 2046.335938 C 2323.828125 2044.265625 2329.726563 2045.515625 2335.46875 2050.007813 C 2343.828125 2056.570313 2341.679688 2074.421875 2329.0625 2103.640625 C 2328.90625 2104.03125 2328.75 2104.382813 2328.632813 2104.65625 C 2328.28125 2105.4375 2327.8125 2106.570313 2327.148438 2108.210938 C 2320.234375 2123.757813 2316.484375 2135.710938 2315.898438 2144.148438 C 2315.3125 2151.609375 2316.71875 2158.757813 2320.039063 2165.554688 C 2323.398438 2172.3125 2328.632813 2178.484375 2335.78125 2184.109375 C 2349.179688 2194.578125 2362.890625 2197.898438 2376.875 2194.03125 C 2390.859375 2190.164063 2404.296875 2179.304688 2417.265625 2161.453125 C 2429.375 2144.734375 2435.039063 2128.71875 2434.296875 2113.367188 C 2433.476563 2097.976563 2426.40625 2084.617188 2412.96875 2073.25 L 2392.460938 2101.53125 C 2398.75 2107.273438 2401.875 2113.914063 2401.914063 2121.414063 C 2401.914063 2128.914063 2398.710938 2137.117188 2392.265625 2145.984375 C 2386.679688 2153.71875 2380.9375 2158.523438 2375 2160.398438 C 2369.101563 2162.3125 2363.476563 2161.179688 2358.085938 2157 C 2350.820313 2151.257813 2351.25 2138.914063 2359.414063 2119.8125 C 2361.601563 2114.617188 2363.359375 2110.59375 2364.570313 2107.664063 C 2369.53125 2095.28125 2372.929688 2086.296875 2374.648438 2080.828125 C 2376.40625 2075.320313 2377.578125 2070.28125 2378.164063 2065.671875 C 2379.257813 2057.390625 2378.320313 2049.8125 2375.273438 2042.859375 C 2372.265625 2035.945313 2367.1875 2029.65625 2360 2024.03125 C 2345.664063 2012.820313 2330.9375 2009.148438 2315.78125 2013.015625 C 2300.625 2016.882813 2286.445313 2027.898438 2273.203125 2046.179688 C 2260.15625 2064.148438 2253.945313 2081.414063 2254.570313 2097.9375 C 2255.195313 2114.460938 2262.617188 2128.914063 2276.875 2141.296875 Z M 2400.507813 1876.726563 L 2410.234375 1848.992188 C 2415.859375 1832.898438 2423.984375 1822.78125 2434.609375 1818.679688 C 2445.195313 1814.5 2459.609375 1815.90625 2477.773438 1822.78125 C 2495.859375 1829.617188 2508.007813 1838.015625 2514.140625 1847.9375 C 2520.3125 1857.859375 2520.898438 1869.890625 2515.898438 1884.1875 L 2504.6875 1916.179688 Z M 2359.375 1899.617188 L 2521.289063 1960.867188 L 2544.375 1894.96875 C 2553.398438 1869.148438 2553.4375 1847.3125 2544.492188 1829.578125 C 2535.507813 1811.84375 2517.421875 1797.78125 2490.117188 1787.46875 C 2475.351563 1781.882813 2461.484375 1779.265625 2448.554688 1779.695313 C 2435.585938 1780.085938 2424.140625 1783.484375 2414.140625 1789.773438 C 2406.679688 1794.539063 2400.3125 1800.75 2395.078125 1808.445313 C 2389.882813 1816.140625 2384.570313 1827.664063 2379.179688 1843.054688 Z M 2412.539063 1729.34375 L 2583.164063 1754.265625 L 2600.585938 1625.476563 L 2570.9375 1621.140625 L 2558.398438 1713.953125 L 2521.992188 1708.640625 L 2533.476563 1623.757813 L 2504.296875 1619.5 L 2492.8125 1704.34375 L 2448.945313 1697.9375 L 2462.070313 1600.789063 L 2430.546875 1596.179688 Z M 2429.609375 1567.3125 L 2601.875 1564.1875 L 2601.25 1527.351563 L 2460.820313 1529.890625 L 2459.335938 1442.507813 L 2427.539063 1443.054688 Z M 2484.21875 1285.28125 L 2473.085938 1251.609375 C 2470.039063 1242.507813 2469.6875 1235.203125 2472.070313 1229.734375 C 2474.453125 1224.265625 2479.726563 1220.046875 2487.96875 1217.078125 C 2495.742188 1214.304688 2502.265625 1214.265625 2507.578125 1216.882813 C 2512.890625 1219.539063 2516.914063 1224.851563 2519.570313 1232.898438 L 2531.328125 1268.40625 Z M 2454.765625 1296.0625 L 2396.835938 1316.804688 L 2408.359375 1351.6875 L 2571.289063 1293.367188 L 2546.328125 1218.054688 C 2540.429688 1200.28125 2531.523438 1188.40625 2519.609375 1182.390625 C 2507.695313 1176.453125 2493.164063 1176.492188 2475.9375 1182.664063 C 2459.140625 1188.679688 2447.695313 1197.78125 2441.5625 1210.046875 C 2435.429688 1222.234375 2435.117188 1236.726563 2440.625 1253.289063 Z M 2352.382813 1195.945313 L 2504.53125 1111.882813 L 2445.78125 997.039063 L 2419.335938 1011.648438 L 2461.640625 1094.382813 L 2429.21875 1112.3125 L 2390.507813 1036.648438 L 2364.492188 1051.023438 L 2403.203125 1126.6875 L 2364.0625 1148.328125 L 2319.765625 1061.6875 L 2291.640625 1077.195313 Z M 2326.601563 963.914063 L 2300.351563 930.242188 C 2294.6875 922.9375 2291.953125 916.375 2292.109375 910.515625 C 2292.304688 904.695313 2295.429688 899.226563 2301.5625 894.070313 C 2307.382813 889.1875 2313.085938 887.15625 2318.671875 887.9375 C 2324.296875 888.71875 2329.6875 892.46875 2334.804688 899.070313 L 2362.070313 934.03125 Z M 2273.554688 1055.945313 L 2407.460938 943.25 L 2354.882813 875.75 C 2343.046875 860.59375 2331.171875 851.960938 2319.257813 849.929688 C 2307.304688 847.859375 2294.921875 852.273438 2282.070313 863.054688 C 2273.90625 869.929688 2268.4375 877.46875 2265.78125 885.632813 C 2263.085938 893.796875 2263.359375 902.039063 2266.5625 910.398438 C 2259.765625 906.0625 2253.28125 904.421875 2247.03125 905.4375 C 2240.78125 906.453125 2233.046875 910.554688 2223.789063 917.742188 L 2207.539063 930.4375 C 2207.421875 930.554688 2207.226563 930.710938 2206.992188 930.90625 C 2198.867188 937.46875 2192.617188 939.773438 2188.242188 937.742188 L 2184.179688 941.179688 L 2208.632813 972.625 C 2211.328125 972.039063 2214.179688 970.828125 2217.382813 969.070313 C 2220.546875 967.234375 2224.101563 964.8125 2228.007813 961.726563 L 2242.382813 950.242188 C 2250.898438 943.601563 2257.773438 940.476563 2262.96875 940.984375 C 2268.164063 941.453125 2273.75 945.515625 2279.6875 953.132813 L 2303.320313 983.484375 L 2251.25 1027.3125 Z M 2266.25 781.140625 L 2238.046875 758.25 L 2171.523438 846.765625 C 2163.320313 857.703125 2155.234375 863.992188 2147.265625 865.59375 C 2139.335938 867.195313 2130.820313 864.304688 2121.71875 856.921875 C 2112.5 849.460938 2107.65625 841.53125 2107.226563 833.09375 C 2106.71875 824.695313 2110.625 815.007813 2118.867188 804.03125 L 2185.429688 715.476563 L 2157.5 692.78125 L 2088.554688 784.5 C 2075.546875 801.804688 2070.234375 818.875 2072.578125 835.671875 C 2074.921875 852.507813 2084.84375 868.015625 2102.382813 882.273438 C 2120 896.570313 2136.953125 902.9375 2153.28125 901.296875 C 2169.570313 899.695313 2184.257813 890.203125 2197.34375 872.820313 Z M 2266.25 781.140625 " transform="matrix(0.1,0,0,-0.1,0,311.2)"/>
<path style="fill-rule:evenodd;fill:rgb(100%,100%,100%);fill-opacity:1;stroke-width:2.16;stroke-linecap:butt;stroke-linejoin:miter;stroke:rgb(100%,100%,100%);stroke-opacity:1;stroke-miterlimit:4;" d="M 1343.554688 629.5 L 1343.554688 748.523438 L 1303.554688 748.523438 L 1303.554688 772.976563 L 1306.132813 772.976563 C 1320.742188 772.976563 1331.367188 775.359375 1338.007813 780.046875 C 1344.6875 784.734375 1348.59375 792.585938 1349.765625 803.601563 L 1376.5625 803.601563 L 1376.5625 629.5 Z M 1512.304688 743.054688 C 1512.304688 753.015625 1509.921875 760.90625 1505.117188 766.726563 C 1500.3125 772.46875 1493.828125 775.398438 1485.546875 775.398438 C 1477.773438 775.398438 1471.679688 772.625 1467.382813 767 C 1463.046875 761.414063 1460.859375 753.601563 1460.859375 743.5625 C 1460.859375 734.1875 1463.164063 726.84375 1467.65625 721.570313 C 1472.1875 716.296875 1478.515625 713.679688 1486.71875 713.679688 C 1494.726563 713.679688 1501.015625 716.257813 1505.546875 721.453125 C 1510.078125 726.609375 1512.304688 733.835938 1512.304688 743.054688 Z M 1512.890625 697.742188 C 1508.984375 693.679688 1504.414063 690.632813 1499.101563 688.601563 C 1493.828125 686.570313 1487.8125 685.59375 1481.210938 685.59375 C 1464.765625 685.59375 1451.5625 690.710938 1441.679688 701.023438 C 1431.757813 711.296875 1426.835938 725.085938 1426.835938 742.351563 C 1426.835938 760.671875 1432.226563 775.4375 1442.96875 786.726563 C 1453.75 797.976563 1467.890625 803.601563 1485.546875 803.601563 C 1505.976563 803.601563 1521.523438 796.296875 1532.148438 781.648438 C 1542.8125 767.039063 1548.125 745.710938 1548.125 717.664063 C 1548.125 687.507813 1542.421875 664.421875 1531.015625 648.367188 C 1519.648438 632.273438 1503.28125 624.265625 1481.914063 624.265625 C 1467.1875 624.265625 1455.273438 628.25 1446.210938 636.257813 C 1437.1875 644.226563 1432.226563 655.125 1431.367188 668.875 L 1465.195313 668.796875 C 1465.976563 663.210938 1468.046875 659.03125 1471.484375 656.296875 C 1474.921875 653.484375 1479.765625 652.117188 1485.976563 652.117188 C 1494.414063 652.117188 1500.859375 655.945313 1505.3125 663.601563 C 1509.765625 671.179688 1512.265625 682.585938 1512.890625 697.742188 Z M 1599.335938 684.851563 C 1599.335938 674.890625 1601.757813 666.960938 1606.523438 661.140625 C 1611.328125 655.28125 1617.851563 652.390625 1626.09375 652.390625 C 1633.828125 652.390625 1639.882813 655.203125 1644.21875 660.867188 C 1648.59375 666.53125 1650.78125 674.460938 1650.78125 684.578125 C 1650.78125 693.875 1648.515625 701.140625 1643.984375 706.335938 C 1639.492188 711.53125 1633.125 714.109375 1624.960938 714.109375 C 1616.914063 714.109375 1610.664063 711.53125 1606.132813 706.335938 C 1601.640625 701.140625 1599.335938 693.953125 1599.335938 684.851563 Z M 1598.867188 730.28125 C 1602.695313 734.34375 1607.304688 737.390625 1612.695313 739.460938 C 1618.085938 741.53125 1624.0625 742.546875 1630.703125 742.546875 C 1647.070313 742.546875 1660.195313 737.390625 1670.078125 727 C 1679.921875 716.609375 1684.84375 702.820313 1684.84375 685.554688 C 1684.84375 667.234375 1679.453125 652.46875 1668.710938 641.179688 C 1657.929688 629.929688 1643.75 624.265625 1626.09375 624.265625 C 1605.78125 624.265625 1590.3125 631.570313 1579.726563 646.140625 C 1569.179688 660.75 1563.90625 682.078125 1563.90625 710.242188 C 1563.90625 740.476563 1569.570313 763.601563 1580.859375 779.578125 C 1592.148438 795.59375 1608.4375 803.601563 1629.726563 803.601563 C 1644.570313 803.601563 1656.523438 799.578125 1665.585938 791.570313 C 1674.6875 783.5625 1679.6875 772.703125 1680.507813 758.992188 L 1646.601563 758.992188 C 1645.78125 764.578125 1643.710938 768.796875 1640.273438 771.609375 C 1636.835938 774.460938 1632.03125 775.90625 1625.898438 775.90625 C 1617.460938 775.90625 1611.015625 772.117188 1606.484375 764.5 C 1601.953125 756.921875 1599.414063 745.515625 1598.867188 730.28125 Z M 1697.617188 629.5 C 1697.773438 645.085938 1700.976563 658.289063 1707.1875 669.109375 C 1713.4375 679.890625 1724.53125 690.867188 1740.429688 701.960938 C 1742.8125 703.679688 1746.328125 706.023438 1750.898438 709.03125 C 1771.953125 723.054688 1782.5 736.53125 1782.5 749.5 C 1782.5 757.195313 1780.273438 763.289063 1775.820313 767.742188 C 1771.40625 772.195313 1765.273438 774.421875 1757.578125 774.421875 C 1749.140625 774.421875 1742.695313 771.6875 1738.085938 766.21875 C 1733.554688 760.75 1731.289063 752.9375 1731.289063 742.820313 L 1731.289063 741.375 L 1700.390625 741.375 C 1700.390625 761.296875 1705.546875 776.6875 1715.859375 787.429688 C 1726.132813 798.210938 1740.820313 803.601563 1759.804688 803.601563 C 1777.070313 803.601563 1790.859375 798.71875 1801.09375 788.953125 C 1811.40625 779.226563 1816.5625 766.21875 1816.5625 750.007813 C 1816.5625 738.40625 1813.867188 728.367188 1808.476563 719.851563 C 1803.085938 711.335938 1792.695313 701.648438 1777.226563 690.828125 C 1773.945313 688.445313 1769.453125 685.359375 1763.710938 681.570313 C 1748.984375 671.765625 1740.742188 664.304688 1738.867188 659.1875 L 1814.921875 659.1875 L 1814.921875 629.5 Z M 1697.617188 629.5 " transform="matrix(0.1,0,0,-0.1,0,311.2)"/>
</g>
</svg>
